<?xml version="1.0" encoding="utf-8" standalone="no"?>
<!DOCTYPE svg PUBLIC "-//W3C//DTD SVG 1.1//EN"
  "http://www.w3.org/Graphics/SVG/1.1/DTD/svg11.dtd">
<svg xmlns:xlink="http://www.w3.org/1999/xlink" width="720pt" height="180pt" viewBox="0 0 720 180" xmlns="http://www.w3.org/2000/svg" version="1.1">
 <metadata>
  <rdf:RDF xmlns:dc="http://purl.org/dc/elements/1.1/" xmlns:cc="http://creativecommons.org/ns#" xmlns:rdf="http://www.w3.org/1999/02/22-rdf-syntax-ns#">
   <cc:Work>
    <dc:type rdf:resource="http://purl.org/dc/dcmitype/StillImage"/>
    <dc:date>2023-04-02T20:58:24.481772</dc:date>
    <dc:format>image/svg+xml</dc:format>
    <dc:creator>
     <cc:Agent>
      <dc:title>Matplotlib v3.7.0, https://matplotlib.org/</dc:title>
     </cc:Agent>
    </dc:creator>
   </cc:Work>
  </rdf:RDF>
 </metadata>
 <defs>
  <style type="text/css">*{stroke-linejoin: round; stroke-linecap: butt}</style>
 </defs>
 <g id="figure_1">
  <g id="patch_1">
   <path d="M 0 180 
L 720 180 
L 720 0 
L 0 0 
z
" style="fill: #ffffff"/>
  </g>
  <g id="axes_1">
   <g id="patch_2">
    <path d="M 61.8 139.62 
L 700.17 139.62 
L 700.17 15.6 
L 61.8 15.6 
z
" style="fill: #ffffff"/>
   </g>
   <g id="matplotlib.axis_1">
    <g id="xtick_1">
     <g id="line2d_1">
      <defs>
       <path id="m78cfac03bf" d="M 0 0 
L 0 -3.5 
" style="stroke: #000000; stroke-width: 0.8"/>
      </defs>
      <g>
       <use xlink:href="#m78cfac03bf" x="61.8" y="139.62" style="stroke: #000000; stroke-width: 0.8"/>
      </g>
     </g>
     <g id="text_1">
      <!-- −20 -->
      <g transform="translate(47.308047 152.997969) scale(0.13 -0.13)">
       <defs>
        <path id="DejaVuSans-Bold-2212" d="M 678 2375 
L 4684 2375 
L 4684 1638 
L 678 1638 
L 678 2375 
z
" transform="scale(0.015625)"/>
        <path id="DejaVuSans-Bold-32" d="M 1844 884 
L 3897 884 
L 3897 0 
L 506 0 
L 506 884 
L 2209 2388 
Q 2438 2594 2547 2791 
Q 2656 2988 2656 3200 
Q 2656 3528 2436 3728 
Q 2216 3928 1850 3928 
Q 1569 3928 1234 3808 
Q 900 3688 519 3450 
L 519 4475 
Q 925 4609 1322 4679 
Q 1719 4750 2100 4750 
Q 2938 4750 3402 4381 
Q 3866 4013 3866 3353 
Q 3866 2972 3669 2642 
Q 3472 2313 2841 1759 
L 1844 884 
z
" transform="scale(0.015625)"/>
        <path id="DejaVuSans-Bold-30" d="M 2944 2338 
Q 2944 3213 2780 3570 
Q 2616 3928 2228 3928 
Q 1841 3928 1675 3570 
Q 1509 3213 1509 2338 
Q 1509 1453 1675 1090 
Q 1841 728 2228 728 
Q 2613 728 2778 1090 
Q 2944 1453 2944 2338 
z
M 4147 2328 
Q 4147 1169 3647 539 
Q 3147 -91 2228 -91 
Q 1306 -91 806 539 
Q 306 1169 306 2328 
Q 306 3491 806 4120 
Q 1306 4750 2228 4750 
Q 3147 4750 3647 4120 
Q 4147 3491 4147 2328 
z
" transform="scale(0.015625)"/>
       </defs>
       <use xlink:href="#DejaVuSans-Bold-2212"/>
       <use xlink:href="#DejaVuSans-Bold-32" x="83.789062"/>
       <use xlink:href="#DejaVuSans-Bold-30" x="153.369141"/>
      </g>
     </g>
    </g>
    <g id="xtick_2">
     <g id="line2d_2">
      <g>
       <use xlink:href="#m78cfac03bf" x="141.59625" y="139.62" style="stroke: #000000; stroke-width: 0.8"/>
      </g>
     </g>
     <g id="text_2">
      <!-- −15 -->
      <g transform="translate(127.104297 152.997969) scale(0.13 -0.13)">
       <defs>
        <path id="DejaVuSans-Bold-31" d="M 750 831 
L 1813 831 
L 1813 3847 
L 722 3622 
L 722 4441 
L 1806 4666 
L 2950 4666 
L 2950 831 
L 4013 831 
L 4013 0 
L 750 0 
L 750 831 
z
" transform="scale(0.015625)"/>
        <path id="DejaVuSans-Bold-35" d="M 678 4666 
L 3669 4666 
L 3669 3781 
L 1638 3781 
L 1638 3059 
Q 1775 3097 1914 3117 
Q 2053 3138 2203 3138 
Q 3056 3138 3531 2711 
Q 4006 2284 4006 1522 
Q 4006 766 3489 337 
Q 2972 -91 2053 -91 
Q 1656 -91 1267 -14 
Q 878 63 494 219 
L 494 1166 
Q 875 947 1217 837 
Q 1559 728 1863 728 
Q 2300 728 2551 942 
Q 2803 1156 2803 1522 
Q 2803 1891 2551 2103 
Q 2300 2316 1863 2316 
Q 1603 2316 1309 2248 
Q 1016 2181 678 2041 
L 678 4666 
z
" transform="scale(0.015625)"/>
       </defs>
       <use xlink:href="#DejaVuSans-Bold-2212"/>
       <use xlink:href="#DejaVuSans-Bold-31" x="83.789062"/>
       <use xlink:href="#DejaVuSans-Bold-35" x="153.369141"/>
      </g>
     </g>
    </g>
    <g id="xtick_3">
     <g id="line2d_3">
      <g>
       <use xlink:href="#m78cfac03bf" x="221.3925" y="139.62" style="stroke: #000000; stroke-width: 0.8"/>
      </g>
     </g>
     <g id="text_3">
      <!-- −10 -->
      <g transform="translate(206.900547 152.997969) scale(0.13 -0.13)">
       <use xlink:href="#DejaVuSans-Bold-2212"/>
       <use xlink:href="#DejaVuSans-Bold-31" x="83.789062"/>
       <use xlink:href="#DejaVuSans-Bold-30" x="153.369141"/>
      </g>
     </g>
    </g>
    <g id="xtick_4">
     <g id="line2d_4">
      <g>
       <use xlink:href="#m78cfac03bf" x="301.18875" y="139.62" style="stroke: #000000; stroke-width: 0.8"/>
      </g>
     </g>
     <g id="text_4">
      <!-- −5 -->
      <g transform="translate(291.219375 152.997969) scale(0.13 -0.13)">
       <use xlink:href="#DejaVuSans-Bold-2212"/>
       <use xlink:href="#DejaVuSans-Bold-35" x="83.789062"/>
      </g>
     </g>
    </g>
    <g id="xtick_5">
     <g id="line2d_5">
      <g>
       <use xlink:href="#m78cfac03bf" x="380.985" y="139.62" style="stroke: #000000; stroke-width: 0.8"/>
      </g>
     </g>
     <g id="text_5">
      <!-- 0 -->
      <g transform="translate(376.462422 152.997969) scale(0.13 -0.13)">
       <use xlink:href="#DejaVuSans-Bold-30"/>
      </g>
     </g>
    </g>
    <g id="xtick_6">
     <g id="line2d_6">
      <g>
       <use xlink:href="#m78cfac03bf" x="460.78125" y="139.62" style="stroke: #000000; stroke-width: 0.8"/>
      </g>
     </g>
     <g id="text_6">
      <!-- 5 -->
      <g transform="translate(456.258672 152.997969) scale(0.13 -0.13)">
       <use xlink:href="#DejaVuSans-Bold-35"/>
      </g>
     </g>
    </g>
    <g id="xtick_7">
     <g id="line2d_7">
      <g>
       <use xlink:href="#m78cfac03bf" x="540.5775" y="139.62" style="stroke: #000000; stroke-width: 0.8"/>
      </g>
     </g>
     <g id="text_7">
      <!-- 10 -->
      <g transform="translate(531.532344 152.997969) scale(0.13 -0.13)">
       <use xlink:href="#DejaVuSans-Bold-31"/>
       <use xlink:href="#DejaVuSans-Bold-30" x="69.580078"/>
      </g>
     </g>
    </g>
    <g id="xtick_8">
     <g id="line2d_8">
      <g>
       <use xlink:href="#m78cfac03bf" x="620.37375" y="139.62" style="stroke: #000000; stroke-width: 0.8"/>
      </g>
     </g>
     <g id="text_8">
      <!-- 15 -->
      <g transform="translate(611.328594 152.997969) scale(0.13 -0.13)">
       <use xlink:href="#DejaVuSans-Bold-31"/>
       <use xlink:href="#DejaVuSans-Bold-35" x="69.580078"/>
      </g>
     </g>
    </g>
    <g id="xtick_9">
     <g id="line2d_9">
      <g>
       <use xlink:href="#m78cfac03bf" x="700.17" y="139.62" style="stroke: #000000; stroke-width: 0.8"/>
      </g>
     </g>
     <g id="text_9">
      <!-- 20 -->
      <g transform="translate(691.124844 152.997969) scale(0.13 -0.13)">
       <use xlink:href="#DejaVuSans-Bold-32"/>
       <use xlink:href="#DejaVuSans-Bold-30" x="69.580078"/>
      </g>
     </g>
    </g>
    <g id="xtick_10">
     <g id="line2d_10">
      <defs>
       <path id="m013b5fe883" d="M 0 0 
L 0 -2 
" style="stroke: #000000; stroke-width: 0.6"/>
      </defs>
      <g>
       <use xlink:href="#m013b5fe883" x="77.75925" y="139.62" style="stroke: #000000; stroke-width: 0.6"/>
      </g>
     </g>
    </g>
    <g id="xtick_11">
     <g id="line2d_11">
      <g>
       <use xlink:href="#m013b5fe883" x="93.7185" y="139.62" style="stroke: #000000; stroke-width: 0.6"/>
      </g>
     </g>
    </g>
    <g id="xtick_12">
     <g id="line2d_12">
      <g>
       <use xlink:href="#m013b5fe883" x="109.67775" y="139.62" style="stroke: #000000; stroke-width: 0.6"/>
      </g>
     </g>
    </g>
    <g id="xtick_13">
     <g id="line2d_13">
      <g>
       <use xlink:href="#m013b5fe883" x="125.637" y="139.62" style="stroke: #000000; stroke-width: 0.6"/>
      </g>
     </g>
    </g>
    <g id="xtick_14">
     <g id="line2d_14">
      <g>
       <use xlink:href="#m013b5fe883" x="157.5555" y="139.62" style="stroke: #000000; stroke-width: 0.6"/>
      </g>
     </g>
    </g>
    <g id="xtick_15">
     <g id="line2d_15">
      <g>
       <use xlink:href="#m013b5fe883" x="173.51475" y="139.62" style="stroke: #000000; stroke-width: 0.6"/>
      </g>
     </g>
    </g>
    <g id="xtick_16">
     <g id="line2d_16">
      <g>
       <use xlink:href="#m013b5fe883" x="189.474" y="139.62" style="stroke: #000000; stroke-width: 0.6"/>
      </g>
     </g>
    </g>
    <g id="xtick_17">
     <g id="line2d_17">
      <g>
       <use xlink:href="#m013b5fe883" x="205.43325" y="139.62" style="stroke: #000000; stroke-width: 0.6"/>
      </g>
     </g>
    </g>
    <g id="xtick_18">
     <g id="line2d_18">
      <g>
       <use xlink:href="#m013b5fe883" x="237.35175" y="139.62" style="stroke: #000000; stroke-width: 0.6"/>
      </g>
     </g>
    </g>
    <g id="xtick_19">
     <g id="line2d_19">
      <g>
       <use xlink:href="#m013b5fe883" x="253.311" y="139.62" style="stroke: #000000; stroke-width: 0.6"/>
      </g>
     </g>
    </g>
    <g id="xtick_20">
     <g id="line2d_20">
      <g>
       <use xlink:href="#m013b5fe883" x="269.27025" y="139.62" style="stroke: #000000; stroke-width: 0.6"/>
      </g>
     </g>
    </g>
    <g id="xtick_21">
     <g id="line2d_21">
      <g>
       <use xlink:href="#m013b5fe883" x="285.2295" y="139.62" style="stroke: #000000; stroke-width: 0.6"/>
      </g>
     </g>
    </g>
    <g id="xtick_22">
     <g id="line2d_22">
      <g>
       <use xlink:href="#m013b5fe883" x="317.148" y="139.62" style="stroke: #000000; stroke-width: 0.6"/>
      </g>
     </g>
    </g>
    <g id="xtick_23">
     <g id="line2d_23">
      <g>
       <use xlink:href="#m013b5fe883" x="333.10725" y="139.62" style="stroke: #000000; stroke-width: 0.6"/>
      </g>
     </g>
    </g>
    <g id="xtick_24">
     <g id="line2d_24">
      <g>
       <use xlink:href="#m013b5fe883" x="349.0665" y="139.62" style="stroke: #000000; stroke-width: 0.6"/>
      </g>
     </g>
    </g>
    <g id="xtick_25">
     <g id="line2d_25">
      <g>
       <use xlink:href="#m013b5fe883" x="365.02575" y="139.62" style="stroke: #000000; stroke-width: 0.6"/>
      </g>
     </g>
    </g>
    <g id="xtick_26">
     <g id="line2d_26">
      <g>
       <use xlink:href="#m013b5fe883" x="396.94425" y="139.62" style="stroke: #000000; stroke-width: 0.6"/>
      </g>
     </g>
    </g>
    <g id="xtick_27">
     <g id="line2d_27">
      <g>
       <use xlink:href="#m013b5fe883" x="412.9035" y="139.62" style="stroke: #000000; stroke-width: 0.6"/>
      </g>
     </g>
    </g>
    <g id="xtick_28">
     <g id="line2d_28">
      <g>
       <use xlink:href="#m013b5fe883" x="428.86275" y="139.62" style="stroke: #000000; stroke-width: 0.6"/>
      </g>
     </g>
    </g>
    <g id="xtick_29">
     <g id="line2d_29">
      <g>
       <use xlink:href="#m013b5fe883" x="444.822" y="139.62" style="stroke: #000000; stroke-width: 0.6"/>
      </g>
     </g>
    </g>
    <g id="xtick_30">
     <g id="line2d_30">
      <g>
       <use xlink:href="#m013b5fe883" x="476.7405" y="139.62" style="stroke: #000000; stroke-width: 0.6"/>
      </g>
     </g>
    </g>
    <g id="xtick_31">
     <g id="line2d_31">
      <g>
       <use xlink:href="#m013b5fe883" x="492.69975" y="139.62" style="stroke: #000000; stroke-width: 0.6"/>
      </g>
     </g>
    </g>
    <g id="xtick_32">
     <g id="line2d_32">
      <g>
       <use xlink:href="#m013b5fe883" x="508.659" y="139.62" style="stroke: #000000; stroke-width: 0.6"/>
      </g>
     </g>
    </g>
    <g id="xtick_33">
     <g id="line2d_33">
      <g>
       <use xlink:href="#m013b5fe883" x="524.61825" y="139.62" style="stroke: #000000; stroke-width: 0.6"/>
      </g>
     </g>
    </g>
    <g id="xtick_34">
     <g id="line2d_34">
      <g>
       <use xlink:href="#m013b5fe883" x="556.53675" y="139.62" style="stroke: #000000; stroke-width: 0.6"/>
      </g>
     </g>
    </g>
    <g id="xtick_35">
     <g id="line2d_35">
      <g>
       <use xlink:href="#m013b5fe883" x="572.496" y="139.62" style="stroke: #000000; stroke-width: 0.6"/>
      </g>
     </g>
    </g>
    <g id="xtick_36">
     <g id="line2d_36">
      <g>
       <use xlink:href="#m013b5fe883" x="588.45525" y="139.62" style="stroke: #000000; stroke-width: 0.6"/>
      </g>
     </g>
    </g>
    <g id="xtick_37">
     <g id="line2d_37">
      <g>
       <use xlink:href="#m013b5fe883" x="604.4145" y="139.62" style="stroke: #000000; stroke-width: 0.6"/>
      </g>
     </g>
    </g>
    <g id="xtick_38">
     <g id="line2d_38">
      <g>
       <use xlink:href="#m013b5fe883" x="636.333" y="139.62" style="stroke: #000000; stroke-width: 0.6"/>
      </g>
     </g>
    </g>
    <g id="xtick_39">
     <g id="line2d_39">
      <g>
       <use xlink:href="#m013b5fe883" x="652.29225" y="139.62" style="stroke: #000000; stroke-width: 0.6"/>
      </g>
     </g>
    </g>
    <g id="xtick_40">
     <g id="line2d_40">
      <g>
       <use xlink:href="#m013b5fe883" x="668.2515" y="139.62" style="stroke: #000000; stroke-width: 0.6"/>
      </g>
     </g>
    </g>
    <g id="xtick_41">
     <g id="line2d_41">
      <g>
       <use xlink:href="#m013b5fe883" x="684.21075" y="139.62" style="stroke: #000000; stroke-width: 0.6"/>
      </g>
     </g>
    </g>
    <g id="text_10">
     <!-- Lag Time [s] -->
     <g transform="translate(346.092031 167.3) scale(0.1 -0.1)">
      <defs>
       <path id="DejaVuSans-Bold-4c" d="M 588 4666 
L 1791 4666 
L 1791 909 
L 3903 909 
L 3903 0 
L 588 0 
L 588 4666 
z
" transform="scale(0.015625)"/>
       <path id="DejaVuSans-Bold-61" d="M 2106 1575 
Q 1756 1575 1579 1456 
Q 1403 1338 1403 1106 
Q 1403 894 1545 773 
Q 1688 653 1941 653 
Q 2256 653 2472 879 
Q 2688 1106 2688 1447 
L 2688 1575 
L 2106 1575 
z
M 3816 1997 
L 3816 0 
L 2688 0 
L 2688 519 
Q 2463 200 2181 54 
Q 1900 -91 1497 -91 
Q 953 -91 614 226 
Q 275 544 275 1050 
Q 275 1666 698 1953 
Q 1122 2241 2028 2241 
L 2688 2241 
L 2688 2328 
Q 2688 2594 2478 2717 
Q 2269 2841 1825 2841 
Q 1466 2841 1156 2769 
Q 847 2697 581 2553 
L 581 3406 
Q 941 3494 1303 3539 
Q 1666 3584 2028 3584 
Q 2975 3584 3395 3211 
Q 3816 2838 3816 1997 
z
" transform="scale(0.015625)"/>
       <path id="DejaVuSans-Bold-67" d="M 2919 594 
Q 2688 288 2409 144 
Q 2131 0 1766 0 
Q 1125 0 706 504 
Q 288 1009 288 1791 
Q 288 2575 706 3076 
Q 1125 3578 1766 3578 
Q 2131 3578 2409 3434 
Q 2688 3291 2919 2981 
L 2919 3500 
L 4044 3500 
L 4044 353 
Q 4044 -491 3511 -936 
Q 2978 -1381 1966 -1381 
Q 1638 -1381 1331 -1331 
Q 1025 -1281 716 -1178 
L 716 -306 
Q 1009 -475 1290 -558 
Q 1572 -641 1856 -641 
Q 2406 -641 2662 -400 
Q 2919 -159 2919 353 
L 2919 594 
z
M 2181 2772 
Q 1834 2772 1640 2515 
Q 1447 2259 1447 1791 
Q 1447 1309 1634 1061 
Q 1822 813 2181 813 
Q 2531 813 2725 1069 
Q 2919 1325 2919 1791 
Q 2919 2259 2725 2515 
Q 2531 2772 2181 2772 
z
" transform="scale(0.015625)"/>
       <path id="DejaVuSans-Bold-20" transform="scale(0.015625)"/>
       <path id="DejaVuSans-Bold-54" d="M 31 4666 
L 4331 4666 
L 4331 3756 
L 2784 3756 
L 2784 0 
L 1581 0 
L 1581 3756 
L 31 3756 
L 31 4666 
z
" transform="scale(0.015625)"/>
       <path id="DejaVuSans-Bold-69" d="M 538 3500 
L 1656 3500 
L 1656 0 
L 538 0 
L 538 3500 
z
M 538 4863 
L 1656 4863 
L 1656 3950 
L 538 3950 
L 538 4863 
z
" transform="scale(0.015625)"/>
       <path id="DejaVuSans-Bold-6d" d="M 3781 2919 
Q 3994 3244 4286 3414 
Q 4578 3584 4928 3584 
Q 5531 3584 5847 3212 
Q 6163 2841 6163 2131 
L 6163 0 
L 5038 0 
L 5038 1825 
Q 5041 1866 5042 1909 
Q 5044 1953 5044 2034 
Q 5044 2406 4934 2573 
Q 4825 2741 4581 2741 
Q 4263 2741 4089 2478 
Q 3916 2216 3909 1719 
L 3909 0 
L 2784 0 
L 2784 1825 
Q 2784 2406 2684 2573 
Q 2584 2741 2328 2741 
Q 2006 2741 1831 2477 
Q 1656 2213 1656 1722 
L 1656 0 
L 531 0 
L 531 3500 
L 1656 3500 
L 1656 2988 
Q 1863 3284 2130 3434 
Q 2397 3584 2719 3584 
Q 3081 3584 3359 3409 
Q 3638 3234 3781 2919 
z
" transform="scale(0.015625)"/>
       <path id="DejaVuSans-Bold-65" d="M 4031 1759 
L 4031 1441 
L 1416 1441 
Q 1456 1047 1700 850 
Q 1944 653 2381 653 
Q 2734 653 3104 758 
Q 3475 863 3866 1075 
L 3866 213 
Q 3469 63 3072 -14 
Q 2675 -91 2278 -91 
Q 1328 -91 801 392 
Q 275 875 275 1747 
Q 275 2603 792 3093 
Q 1309 3584 2216 3584 
Q 3041 3584 3536 3087 
Q 4031 2591 4031 1759 
z
M 2881 2131 
Q 2881 2450 2695 2645 
Q 2509 2841 2209 2841 
Q 1884 2841 1681 2658 
Q 1478 2475 1428 2131 
L 2881 2131 
z
" transform="scale(0.015625)"/>
       <path id="DejaVuSans-Bold-5b" d="M 550 4863 
L 2491 4863 
L 2491 4159 
L 1613 4159 
L 1613 -141 
L 2491 -141 
L 2491 -844 
L 550 -844 
L 550 4863 
z
" transform="scale(0.015625)"/>
       <path id="DejaVuSans-Bold-73" d="M 3272 3391 
L 3272 2541 
Q 2913 2691 2578 2766 
Q 2244 2841 1947 2841 
Q 1628 2841 1473 2761 
Q 1319 2681 1319 2516 
Q 1319 2381 1436 2309 
Q 1553 2238 1856 2203 
L 2053 2175 
Q 2913 2066 3209 1816 
Q 3506 1566 3506 1031 
Q 3506 472 3093 190 
Q 2681 -91 1863 -91 
Q 1516 -91 1145 -36 
Q 775 19 384 128 
L 384 978 
Q 719 816 1070 734 
Q 1422 653 1784 653 
Q 2113 653 2278 743 
Q 2444 834 2444 1013 
Q 2444 1163 2330 1236 
Q 2216 1309 1875 1350 
L 1678 1375 
Q 931 1469 631 1722 
Q 331 1975 331 2491 
Q 331 3047 712 3315 
Q 1094 3584 1881 3584 
Q 2191 3584 2531 3537 
Q 2872 3491 3272 3391 
z
" transform="scale(0.015625)"/>
       <path id="DejaVuSans-Bold-5d" d="M 2375 -844 
L 434 -844 
L 434 -141 
L 1313 -141 
L 1313 4159 
L 434 4159 
L 434 4863 
L 2375 4863 
L 2375 -844 
z
" transform="scale(0.015625)"/>
      </defs>
      <use xlink:href="#DejaVuSans-Bold-4c"/>
      <use xlink:href="#DejaVuSans-Bold-61" x="63.720703"/>
      <use xlink:href="#DejaVuSans-Bold-67" x="131.201172"/>
      <use xlink:href="#DejaVuSans-Bold-20" x="202.783203"/>
      <use xlink:href="#DejaVuSans-Bold-54" x="237.597656"/>
      <use xlink:href="#DejaVuSans-Bold-69" x="305.810547"/>
      <use xlink:href="#DejaVuSans-Bold-6d" x="340.087891"/>
      <use xlink:href="#DejaVuSans-Bold-65" x="444.287109"/>
      <use xlink:href="#DejaVuSans-Bold-20" x="512.109375"/>
      <use xlink:href="#DejaVuSans-Bold-5b" x="546.923828"/>
      <use xlink:href="#DejaVuSans-Bold-73" x="592.626953"/>
      <use xlink:href="#DejaVuSans-Bold-5d" x="652.148438"/>
     </g>
    </g>
   </g>
   <g id="matplotlib.axis_2">
    <g id="ytick_1">
     <g id="line2d_42">
      <defs>
       <path id="m7f59da9571" d="M 0 0 
L 3.5 0 
" style="stroke: #000000; stroke-width: 0.8"/>
      </defs>
      <g>
       <use xlink:href="#m7f59da9571" x="61.8" y="139.62" style="stroke: #000000; stroke-width: 0.8"/>
      </g>
     </g>
     <g id="text_11">
      <!-- −1.0 -->
      <g transform="translate(24.378125 144.558984) scale(0.13 -0.13)">
       <defs>
        <path id="DejaVuSans-Bold-2e" d="M 653 1209 
L 1778 1209 
L 1778 0 
L 653 0 
L 653 1209 
z
" transform="scale(0.015625)"/>
       </defs>
       <use xlink:href="#DejaVuSans-Bold-2212"/>
       <use xlink:href="#DejaVuSans-Bold-31" x="83.789062"/>
       <use xlink:href="#DejaVuSans-Bold-2e" x="153.369141"/>
       <use xlink:href="#DejaVuSans-Bold-30" x="191.357422"/>
      </g>
     </g>
    </g>
    <g id="ytick_2">
     <g id="line2d_43">
      <g>
       <use xlink:href="#m7f59da9571" x="61.8" y="108.615" style="stroke: #000000; stroke-width: 0.8"/>
      </g>
     </g>
     <g id="text_12">
      <!-- −0.5 -->
      <g transform="translate(24.378125 113.553984) scale(0.13 -0.13)">
       <use xlink:href="#DejaVuSans-Bold-2212"/>
       <use xlink:href="#DejaVuSans-Bold-30" x="83.789062"/>
       <use xlink:href="#DejaVuSans-Bold-2e" x="153.369141"/>
       <use xlink:href="#DejaVuSans-Bold-35" x="191.357422"/>
      </g>
     </g>
    </g>
    <g id="ytick_3">
     <g id="line2d_44">
      <g>
       <use xlink:href="#m7f59da9571" x="61.8" y="77.61" style="stroke: #000000; stroke-width: 0.8"/>
      </g>
     </g>
     <g id="text_13">
      <!-- 0.0 -->
      <g transform="translate(35.271719 82.548984) scale(0.13 -0.13)">
       <use xlink:href="#DejaVuSans-Bold-30"/>
       <use xlink:href="#DejaVuSans-Bold-2e" x="69.580078"/>
       <use xlink:href="#DejaVuSans-Bold-30" x="107.568359"/>
      </g>
     </g>
    </g>
    <g id="ytick_4">
     <g id="line2d_45">
      <g>
       <use xlink:href="#m7f59da9571" x="61.8" y="46.605" style="stroke: #000000; stroke-width: 0.8"/>
      </g>
     </g>
     <g id="text_14">
      <!-- 0.5 -->
      <g transform="translate(35.271719 51.543984) scale(0.13 -0.13)">
       <use xlink:href="#DejaVuSans-Bold-30"/>
       <use xlink:href="#DejaVuSans-Bold-2e" x="69.580078"/>
       <use xlink:href="#DejaVuSans-Bold-35" x="107.568359"/>
      </g>
     </g>
    </g>
    <g id="ytick_5">
     <g id="line2d_46">
      <g>
       <use xlink:href="#m7f59da9571" x="61.8" y="15.6" style="stroke: #000000; stroke-width: 0.8"/>
      </g>
     </g>
     <g id="text_15">
      <!-- 1.0 -->
      <g transform="translate(35.271719 20.538984) scale(0.13 -0.13)">
       <use xlink:href="#DejaVuSans-Bold-31"/>
       <use xlink:href="#DejaVuSans-Bold-2e" x="69.580078"/>
       <use xlink:href="#DejaVuSans-Bold-30" x="107.568359"/>
      </g>
     </g>
    </g>
    <g id="ytick_6">
     <g id="line2d_47"/>
    </g>
    <g id="ytick_7">
     <g id="line2d_48"/>
    </g>
    <g id="ytick_8">
     <g id="line2d_49"/>
    </g>
    <g id="ytick_9">
     <g id="line2d_50"/>
    </g>
    <g id="ytick_10">
     <g id="line2d_51"/>
    </g>
    <g id="ytick_11">
     <g id="line2d_52"/>
    </g>
    <g id="ytick_12">
     <g id="line2d_53"/>
    </g>
    <g id="ytick_13">
     <g id="line2d_54"/>
    </g>
    <g id="ytick_14">
     <g id="line2d_55"/>
    </g>
    <g id="ytick_15">
     <g id="line2d_56"/>
    </g>
    <g id="ytick_16">
     <g id="line2d_57"/>
    </g>
    <g id="ytick_17">
     <g id="line2d_58"/>
    </g>
    <g id="ytick_18">
     <g id="line2d_59"/>
    </g>
    <g id="ytick_19">
     <g id="line2d_60"/>
    </g>
    <g id="ytick_20">
     <g id="line2d_61"/>
    </g>
    <g id="ytick_21">
     <g id="line2d_62"/>
    </g>
    <g id="text_16">
     <!-- Correlation -->
     <g transform="translate(18.298437 109.224063) rotate(-90) scale(0.1 -0.1)">
      <defs>
       <path id="DejaVuSans-Bold-43" d="M 4288 256 
Q 3956 84 3597 -3 
Q 3238 -91 2847 -91 
Q 1681 -91 1000 561 
Q 319 1213 319 2328 
Q 319 3447 1000 4098 
Q 1681 4750 2847 4750 
Q 3238 4750 3597 4662 
Q 3956 4575 4288 4403 
L 4288 3438 
Q 3953 3666 3628 3772 
Q 3303 3878 2944 3878 
Q 2300 3878 1931 3465 
Q 1563 3053 1563 2328 
Q 1563 1606 1931 1193 
Q 2300 781 2944 781 
Q 3303 781 3628 887 
Q 3953 994 4288 1222 
L 4288 256 
z
" transform="scale(0.015625)"/>
       <path id="DejaVuSans-Bold-6f" d="M 2203 2784 
Q 1831 2784 1636 2517 
Q 1441 2250 1441 1747 
Q 1441 1244 1636 976 
Q 1831 709 2203 709 
Q 2569 709 2762 976 
Q 2956 1244 2956 1747 
Q 2956 2250 2762 2517 
Q 2569 2784 2203 2784 
z
M 2203 3584 
Q 3106 3584 3614 3096 
Q 4122 2609 4122 1747 
Q 4122 884 3614 396 
Q 3106 -91 2203 -91 
Q 1297 -91 786 396 
Q 275 884 275 1747 
Q 275 2609 786 3096 
Q 1297 3584 2203 3584 
z
" transform="scale(0.015625)"/>
       <path id="DejaVuSans-Bold-72" d="M 3138 2547 
Q 2991 2616 2845 2648 
Q 2700 2681 2553 2681 
Q 2122 2681 1889 2404 
Q 1656 2128 1656 1613 
L 1656 0 
L 538 0 
L 538 3500 
L 1656 3500 
L 1656 2925 
Q 1872 3269 2151 3426 
Q 2431 3584 2822 3584 
Q 2878 3584 2943 3579 
Q 3009 3575 3134 3559 
L 3138 2547 
z
" transform="scale(0.015625)"/>
       <path id="DejaVuSans-Bold-6c" d="M 538 4863 
L 1656 4863 
L 1656 0 
L 538 0 
L 538 4863 
z
" transform="scale(0.015625)"/>
       <path id="DejaVuSans-Bold-74" d="M 1759 4494 
L 1759 3500 
L 2913 3500 
L 2913 2700 
L 1759 2700 
L 1759 1216 
Q 1759 972 1856 886 
Q 1953 800 2241 800 
L 2816 800 
L 2816 0 
L 1856 0 
Q 1194 0 917 276 
Q 641 553 641 1216 
L 641 2700 
L 84 2700 
L 84 3500 
L 641 3500 
L 641 4494 
L 1759 4494 
z
" transform="scale(0.015625)"/>
       <path id="DejaVuSans-Bold-6e" d="M 4056 2131 
L 4056 0 
L 2931 0 
L 2931 347 
L 2931 1631 
Q 2931 2084 2911 2256 
Q 2891 2428 2841 2509 
Q 2775 2619 2662 2680 
Q 2550 2741 2406 2741 
Q 2056 2741 1856 2470 
Q 1656 2200 1656 1722 
L 1656 0 
L 538 0 
L 538 3500 
L 1656 3500 
L 1656 2988 
Q 1909 3294 2193 3439 
Q 2478 3584 2822 3584 
Q 3428 3584 3742 3212 
Q 4056 2841 4056 2131 
z
" transform="scale(0.015625)"/>
      </defs>
      <use xlink:href="#DejaVuSans-Bold-43"/>
      <use xlink:href="#DejaVuSans-Bold-6f" x="73.388672"/>
      <use xlink:href="#DejaVuSans-Bold-72" x="142.089844"/>
      <use xlink:href="#DejaVuSans-Bold-72" x="191.40625"/>
      <use xlink:href="#DejaVuSans-Bold-65" x="240.722656"/>
      <use xlink:href="#DejaVuSans-Bold-6c" x="308.544922"/>
      <use xlink:href="#DejaVuSans-Bold-61" x="342.822266"/>
      <use xlink:href="#DejaVuSans-Bold-74" x="410.302734"/>
      <use xlink:href="#DejaVuSans-Bold-69" x="458.105469"/>
      <use xlink:href="#DejaVuSans-Bold-6f" x="492.382812"/>
      <use xlink:href="#DejaVuSans-Bold-6e" x="561.083984"/>
     </g>
    </g>
   </g>
   <g id="line2d_63">
    <path d="M 61.8 75.52325 
L 64.99185 80.058048 
L 66.587775 78.777734 
L 68.1837 75.439314 
L 69.779625 75.754008 
L 71.37555 78.985435 
L 72.971475 79.466459 
L 74.5674 77.236436 
L 76.163325 76.257389 
L 77.75925 77.162403 
L 79.355175 78.265393 
L 80.9511 78.402309 
L 82.547025 77.542863 
L 84.14295 77.009814 
L 85.738875 77.408296 
L 87.3348 77.677502 
L 88.930725 77.671596 
L 90.52665 78.069359 
L 92.122575 78.086148 
L 93.7185 76.926237 
L 95.314425 76.303159 
L 96.91035 78.144962 
L 98.506275 79.789956 
L 100.1022 77.479489 
L 101.698125 74.846949 
L 103.29405 77.265651 
L 104.889975 80.412955 
L 106.4859 78.305683 
L 108.081825 75.385211 
L 109.67775 76.840292 
L 111.273675 78.785495 
L 112.8696 78.074979 
L 114.465525 77.642663 
L 116.06145 77.849356 
L 117.657375 76.57006 
L 119.2533 76.378463 
L 120.849225 79.162481 
L 122.44515 79.863508 
L 124.041075 76.17482 
L 125.637 74.654765 
L 127.232925 78.370714 
L 128.82885 80.62305 
L 130.424775 77.818923 
L 132.0207 75.337938 
L 133.616625 76.492959 
L 135.21255 78.48203 
L 136.808475 79.214327 
L 138.4044 78.384249 
L 140.000325 76.190049 
L 141.59625 75.47512 
L 143.192175 78.141019 
L 144.7881 80.348201 
L 146.384025 78.474742 
L 147.97995 75.263558 
L 149.575875 75.210846 
L 151.1718 78.66175 
L 152.767725 81.222745 
L 154.36365 78.404302 
L 155.959575 73.52549 
L 157.5555 74.845656 
L 159.151425 81.239489 
L 160.74735 82.069092 
L 162.343275 75.224082 
L 163.9392 72.061538 
L 165.535125 78.351584 
L 167.13105 83.426742 
L 168.726975 78.423151 
L 170.3229 72.431317 
L 171.918825 75.71036 
L 173.51475 81.368829 
L 175.110675 79.96312 
L 176.7066 75.665348 
L 178.302525 75.482578 
L 179.89845 77.809096 
L 181.494375 78.895833 
L 183.0903 78.749592 
L 184.686225 77.536455 
L 186.28215 75.747157 
L 187.878075 76.425248 
L 189.474 79.539713 
L 191.069925 79.793429 
L 192.66585 76.132434 
L 194.261775 74.932846 
L 195.8577 78.319573 
L 197.453625 80.2316 
L 199.04955 77.703011 
L 200.645475 75.455072 
L 202.2414 77.004759 
L 203.837325 79.070782 
L 205.43325 78.266015 
L 207.029175 76.834692 
L 208.6251 77.321815 
L 210.221025 77.95948 
L 211.81695 77.333544 
L 213.412875 77.267867 
L 215.0088 78.310223 
L 216.604725 78.350753 
L 218.20065 76.957223 
L 219.796575 76.291329 
L 221.3925 77.527853 
L 222.988425 79.333794 
L 224.58435 79.09235 
L 226.180275 75.995047 
L 227.7762 74.376204 
L 230.96805 82.426505 
L 232.563975 78.31998 
L 234.1599 71.947923 
L 235.755825 75.001801 
L 237.35175 82.99274 
L 238.947675 82.082822 
L 240.5436 73.652548 
L 242.139525 71.822231 
L 243.73545 79.324741 
L 245.331375 83.702382 
L 246.9273 78.441184 
L 248.523225 72.435162 
L 250.11915 74.478043 
L 251.715075 80.792094 
L 253.311 82.305765 
L 254.906925 77.050224 
L 256.50285 72.438021 
L 258.098775 75.493131 
L 259.6947 82.068616 
L 261.290625 81.897321 
L 262.88655 74.859368 
L 264.482475 72.095484 
L 266.0784 78.118499 
L 267.674325 83.171681 
L 269.27025 79.261422 
L 270.866175 73.17085 
L 272.4621 74.466227 
L 274.058025 80.074634 
L 275.65395 81.164766 
L 277.249875 77.389833 
L 278.8458 74.861368 
L 280.441725 75.998055 
L 282.03765 78.55603 
L 283.633575 80.057091 
L 285.2295 78.92468 
L 286.825425 75.608957 
L 288.42135 74.284092 
L 290.017275 78.020256 
L 291.6132 82.048573 
L 293.209125 79.394994 
L 294.80505 73.327822 
L 296.400975 73.789071 
L 297.9969 80.528547 
L 299.592825 82.565185 
L 301.18875 76.781953 
L 302.784675 72.924064 
L 304.3806 76.278728 
L 305.976525 80.599836 
L 307.57245 80.555993 
L 310.7643 74.05357 
L 312.360225 75.345073 
L 313.95615 80.573703 
L 315.552075 81.786203 
L 317.148 76.303532 
L 318.743925 72.710911 
L 320.33985 76.72475 
L 321.935775 82.054752 
L 323.5317 80.379717 
L 325.127625 74.523694 
L 326.72355 74.038175 
L 328.319475 78.811106 
L 329.9154 80.615225 
L 331.511325 78.310538 
L 333.10725 76.272565 
L 334.703175 75.609448 
L 336.2991 76.744375 
L 337.895025 79.81782 
L 339.49095 80.540882 
L 341.086875 76.488699 
L 342.6828 73.434504 
L 344.278725 76.419573 
L 345.87465 81.72003 
L 347.470575 81.8718 
L 349.0665 75.074556 
L 350.662425 70.55984 
L 352.25835 77.066748 
L 353.854275 85.802495 
L 355.4502 82.307755 
L 357.046125 71.08705 
L 358.64205 68.960259 
L 360.237975 79.047597 
L 361.8339 88.246392 
L 363.429825 83.874709 
L 365.02575 68.370982 
L 366.621675 64.838862 
L 369.813525 93.725036 
L 371.40945 90.265787 
L 373.005375 63.118291 
L 374.6013 48.614385 
L 376.197225 82.328532 
L 377.79315 127.402687 
L 379.389075 78.770051 
L 380.985 15.6 
L 382.580925 78.770051 
L 384.17685 127.402687 
L 385.772775 82.328532 
L 387.3687 48.614385 
L 388.964625 63.118291 
L 390.56055 90.265787 
L 392.156475 93.725036 
L 395.348325 64.838862 
L 396.94425 68.370982 
L 398.540175 83.874709 
L 400.1361 88.246392 
L 401.732025 79.047597 
L 403.32795 68.960259 
L 404.923875 71.08705 
L 406.5198 82.307755 
L 408.115725 85.802495 
L 409.71165 77.066748 
L 411.307575 70.55984 
L 412.9035 75.074556 
L 414.499425 81.8718 
L 416.09535 81.72003 
L 417.691275 76.419573 
L 419.2872 73.434504 
L 420.883125 76.488699 
L 422.47905 80.540882 
L 424.074975 79.81782 
L 425.6709 76.744375 
L 427.266825 75.609448 
L 428.86275 76.272565 
L 430.458675 78.310538 
L 432.0546 80.615225 
L 433.650525 78.811106 
L 435.24645 74.038175 
L 436.842375 74.523694 
L 438.4383 80.379717 
L 440.034225 82.054752 
L 441.63015 76.72475 
L 443.226075 72.710911 
L 444.822 76.303532 
L 446.417925 81.786203 
L 448.01385 80.573703 
L 449.609775 75.345073 
L 451.2057 74.05357 
L 454.39755 80.555993 
L 455.993475 80.599836 
L 457.5894 76.278728 
L 459.185325 72.924064 
L 460.78125 76.781953 
L 462.377175 82.565185 
L 463.9731 80.528547 
L 465.569025 73.789071 
L 467.16495 73.327822 
L 468.760875 79.394994 
L 470.3568 82.048573 
L 473.54865 74.284092 
L 475.144575 75.608957 
L 476.7405 78.92468 
L 478.336425 80.057091 
L 479.93235 78.55603 
L 481.528275 75.998055 
L 483.1242 74.861368 
L 484.720125 77.389833 
L 486.31605 81.164766 
L 487.911975 80.074634 
L 489.5079 74.466227 
L 491.103825 73.17085 
L 492.69975 79.261422 
L 494.295675 83.171681 
L 495.8916 78.118499 
L 497.487525 72.095484 
L 499.08345 74.859368 
L 500.679375 81.897321 
L 502.2753 82.068616 
L 503.871225 75.493131 
L 505.46715 72.438021 
L 507.063075 77.050224 
L 508.659 82.305765 
L 510.254925 80.792094 
L 511.85085 74.478043 
L 513.446775 72.435162 
L 515.0427 78.441184 
L 516.638625 83.702382 
L 518.23455 79.324741 
L 519.830475 71.822231 
L 521.4264 73.652548 
L 523.022325 82.082822 
L 524.61825 82.99274 
L 526.214175 75.001801 
L 527.8101 71.947923 
L 529.406025 78.31998 
L 531.00195 82.426505 
L 534.1938 74.376204 
L 535.789725 75.995047 
L 537.38565 79.09235 
L 538.981575 79.333794 
L 540.5775 77.527853 
L 542.173425 76.291329 
L 543.76935 76.957223 
L 545.365275 78.350753 
L 546.9612 78.310223 
L 548.557125 77.267867 
L 550.15305 77.333544 
L 551.748975 77.95948 
L 553.3449 77.321815 
L 554.940825 76.834692 
L 556.53675 78.266015 
L 558.132675 79.070782 
L 559.7286 77.004759 
L 561.324525 75.455072 
L 562.92045 77.703011 
L 564.516375 80.2316 
L 566.1123 78.319573 
L 567.708225 74.932846 
L 569.30415 76.132434 
L 570.900075 79.793429 
L 572.496 79.539713 
L 574.091925 76.425248 
L 575.68785 75.747157 
L 577.283775 77.536455 
L 578.8797 78.749592 
L 580.475625 78.895833 
L 582.07155 77.809096 
L 583.667475 75.482578 
L 585.2634 75.665348 
L 586.859325 79.96312 
L 588.45525 81.368829 
L 590.051175 75.71036 
L 591.6471 72.431317 
L 593.243025 78.423151 
L 594.83895 83.426742 
L 596.434875 78.351584 
L 598.0308 72.061538 
L 599.626725 75.224082 
L 601.22265 82.069092 
L 602.818575 81.239489 
L 604.4145 74.845656 
L 606.010425 73.52549 
L 607.60635 78.404302 
L 609.202275 81.222745 
L 610.7982 78.66175 
L 612.394125 75.210846 
L 613.99005 75.263558 
L 615.585975 78.474742 
L 617.1819 80.348201 
L 618.777825 78.141019 
L 620.37375 75.47512 
L 621.969675 76.190049 
L 623.5656 78.384249 
L 625.161525 79.214327 
L 626.75745 78.48203 
L 628.353375 76.492959 
L 629.9493 75.337938 
L 631.545225 77.818923 
L 633.14115 80.62305 
L 634.737075 78.370714 
L 636.333 74.654765 
L 637.928925 76.17482 
L 639.52485 79.863508 
L 641.120775 79.162481 
L 642.7167 76.378463 
L 644.312625 76.57006 
L 645.90855 77.849356 
L 647.504475 77.642663 
L 649.1004 78.074979 
L 650.696325 78.785495 
L 652.29225 76.840292 
L 653.888175 75.385211 
L 655.4841 78.305683 
L 657.080025 80.412955 
L 658.67595 77.265651 
L 660.271875 74.846949 
L 661.8678 77.479489 
L 663.463725 79.789956 
L 665.05965 78.144962 
L 666.655575 76.303159 
L 668.2515 76.926237 
L 669.847425 78.086148 
L 671.44335 78.069359 
L 673.039275 77.671596 
L 674.6352 77.677502 
L 676.231125 77.408296 
L 677.82705 77.009814 
L 679.422975 77.542863 
L 681.0189 78.402309 
L 682.614825 78.265393 
L 684.21075 77.162403 
L 685.806675 76.257389 
L 687.4026 77.236436 
L 688.998525 79.466459 
L 690.59445 78.985435 
L 692.190375 75.754008 
L 693.7863 75.439314 
L 695.382225 78.777734 
L 696.97815 80.058048 
L 700.17 75.52325 
L 700.17 75.52325 
" clip-path="url(#p5f3266d8e5)" style="fill: none; stroke: #000000; stroke-linecap: square"/>
   </g>
   <g id="patch_3">
    <path d="M 61.8 139.62 
L 61.8 15.6 
" style="fill: none; stroke: #000000; stroke-width: 0.5; stroke-linejoin: miter; stroke-linecap: square"/>
   </g>
   <g id="patch_4">
    <path d="M 61.8 139.62 
L 700.17 139.62 
" style="fill: none; stroke: #000000; stroke-width: 0.5; stroke-linejoin: miter; stroke-linecap: square"/>
   </g>
   <g id="text_17">
    <!-- 2016/01/25 00:00 - 2016/02/05 00:00 -->
    <g transform="translate(489.306275 25.678837) scale(0.1 -0.1)">
     <defs>
      <path id="DejaVuSans-Bold-36" d="M 2316 2303 
Q 2000 2303 1842 2098 
Q 1684 1894 1684 1484 
Q 1684 1075 1842 870 
Q 2000 666 2316 666 
Q 2634 666 2792 870 
Q 2950 1075 2950 1484 
Q 2950 1894 2792 2098 
Q 2634 2303 2316 2303 
z
M 3803 4544 
L 3803 3681 
Q 3506 3822 3243 3889 
Q 2981 3956 2731 3956 
Q 2194 3956 1894 3657 
Q 1594 3359 1544 2772 
Q 1750 2925 1990 3001 
Q 2231 3078 2516 3078 
Q 3231 3078 3670 2659 
Q 4109 2241 4109 1563 
Q 4109 813 3618 361 
Q 3128 -91 2303 -91 
Q 1394 -91 895 523 
Q 397 1138 397 2266 
Q 397 3422 980 4083 
Q 1563 4744 2578 4744 
Q 2900 4744 3203 4694 
Q 3506 4644 3803 4544 
z
" transform="scale(0.015625)"/>
      <path id="DejaVuSans-Bold-2f" d="M 1644 4666 
L 2338 4666 
L 691 -594 
L 0 -594 
L 1644 4666 
z
" transform="scale(0.015625)"/>
      <path id="DejaVuSans-Bold-3a" d="M 716 3500 
L 1844 3500 
L 1844 2291 
L 716 2291 
L 716 3500 
z
M 716 1209 
L 1844 1209 
L 1844 0 
L 716 0 
L 716 1209 
z
" transform="scale(0.015625)"/>
      <path id="DejaVuSans-Bold-2d" d="M 347 2297 
L 2309 2297 
L 2309 1388 
L 347 1388 
L 347 2297 
z
" transform="scale(0.015625)"/>
     </defs>
     <use xlink:href="#DejaVuSans-Bold-32"/>
     <use xlink:href="#DejaVuSans-Bold-30" x="69.580078"/>
     <use xlink:href="#DejaVuSans-Bold-31" x="139.160156"/>
     <use xlink:href="#DejaVuSans-Bold-36" x="208.740234"/>
     <use xlink:href="#DejaVuSans-Bold-2f" x="278.320312"/>
     <use xlink:href="#DejaVuSans-Bold-30" x="314.84375"/>
     <use xlink:href="#DejaVuSans-Bold-31" x="384.423828"/>
     <use xlink:href="#DejaVuSans-Bold-2f" x="454.003906"/>
     <use xlink:href="#DejaVuSans-Bold-32" x="490.527344"/>
     <use xlink:href="#DejaVuSans-Bold-35" x="560.107422"/>
     <use xlink:href="#DejaVuSans-Bold-20" x="629.6875"/>
     <use xlink:href="#DejaVuSans-Bold-30" x="664.501953"/>
     <use xlink:href="#DejaVuSans-Bold-30" x="734.082031"/>
     <use xlink:href="#DejaVuSans-Bold-3a" x="803.662109"/>
     <use xlink:href="#DejaVuSans-Bold-30" x="843.652344"/>
     <use xlink:href="#DejaVuSans-Bold-30" x="913.232422"/>
     <use xlink:href="#DejaVuSans-Bold-20" x="982.8125"/>
     <use xlink:href="#DejaVuSans-Bold-2d" x="1017.626953"/>
     <use xlink:href="#DejaVuSans-Bold-20" x="1059.130859"/>
     <use xlink:href="#DejaVuSans-Bold-32" x="1093.945312"/>
     <use xlink:href="#DejaVuSans-Bold-30" x="1163.525391"/>
     <use xlink:href="#DejaVuSans-Bold-31" x="1233.105469"/>
     <use xlink:href="#DejaVuSans-Bold-36" x="1302.685547"/>
     <use xlink:href="#DejaVuSans-Bold-2f" x="1372.265625"/>
     <use xlink:href="#DejaVuSans-Bold-30" x="1408.789062"/>
     <use xlink:href="#DejaVuSans-Bold-32" x="1478.369141"/>
     <use xlink:href="#DejaVuSans-Bold-2f" x="1547.949219"/>
     <use xlink:href="#DejaVuSans-Bold-30" x="1584.472656"/>
     <use xlink:href="#DejaVuSans-Bold-35" x="1654.052734"/>
     <use xlink:href="#DejaVuSans-Bold-20" x="1723.632812"/>
     <use xlink:href="#DejaVuSans-Bold-30" x="1758.447266"/>
     <use xlink:href="#DejaVuSans-Bold-30" x="1828.027344"/>
     <use xlink:href="#DejaVuSans-Bold-3a" x="1897.607422"/>
     <use xlink:href="#DejaVuSans-Bold-30" x="1937.597656"/>
     <use xlink:href="#DejaVuSans-Bold-30" x="2007.177734"/>
    </g>
    <!-- X9-X9.IR1-IR1.-.HHE-HHE -->
    <g transform="translate(556.567212 36.87665) scale(0.1 -0.1)">
     <defs>
      <path id="DejaVuSans-Bold-58" d="M 3188 2381 
L 4806 0 
L 3553 0 
L 2463 1594 
L 1381 0 
L 122 0 
L 1741 2381 
L 184 4666 
L 1441 4666 
L 2463 3163 
L 3481 4666 
L 4744 4666 
L 3188 2381 
z
" transform="scale(0.015625)"/>
      <path id="DejaVuSans-Bold-39" d="M 641 103 
L 641 966 
Q 928 831 1190 764 
Q 1453 697 1709 697 
Q 2247 697 2547 995 
Q 2847 1294 2900 1881 
Q 2688 1725 2447 1647 
Q 2206 1569 1925 1569 
Q 1209 1569 770 1986 
Q 331 2403 331 3084 
Q 331 3838 820 4291 
Q 1309 4744 2131 4744 
Q 3044 4744 3544 4128 
Q 4044 3513 4044 2388 
Q 4044 1231 3459 570 
Q 2875 -91 1856 -91 
Q 1528 -91 1228 -42 
Q 928 6 641 103 
z
M 2125 2350 
Q 2441 2350 2600 2554 
Q 2759 2759 2759 3169 
Q 2759 3575 2600 3781 
Q 2441 3988 2125 3988 
Q 1809 3988 1650 3781 
Q 1491 3575 1491 3169 
Q 1491 2759 1650 2554 
Q 1809 2350 2125 2350 
z
" transform="scale(0.015625)"/>
      <path id="DejaVuSans-Bold-49" d="M 588 4666 
L 1791 4666 
L 1791 0 
L 588 0 
L 588 4666 
z
" transform="scale(0.015625)"/>
      <path id="DejaVuSans-Bold-52" d="M 2297 2597 
Q 2675 2597 2839 2737 
Q 3003 2878 3003 3200 
Q 3003 3519 2839 3656 
Q 2675 3794 2297 3794 
L 1791 3794 
L 1791 2597 
L 2297 2597 
z
M 1791 1766 
L 1791 0 
L 588 0 
L 588 4666 
L 2425 4666 
Q 3347 4666 3776 4356 
Q 4206 4047 4206 3378 
Q 4206 2916 3982 2619 
Q 3759 2322 3309 2181 
Q 3556 2125 3751 1926 
Q 3947 1728 4147 1325 
L 4800 0 
L 3519 0 
L 2950 1159 
Q 2778 1509 2601 1637 
Q 2425 1766 2131 1766 
L 1791 1766 
z
" transform="scale(0.015625)"/>
      <path id="DejaVuSans-Bold-48" d="M 588 4666 
L 1791 4666 
L 1791 2888 
L 3566 2888 
L 3566 4666 
L 4769 4666 
L 4769 0 
L 3566 0 
L 3566 1978 
L 1791 1978 
L 1791 0 
L 588 0 
L 588 4666 
z
" transform="scale(0.015625)"/>
      <path id="DejaVuSans-Bold-45" d="M 588 4666 
L 3834 4666 
L 3834 3756 
L 1791 3756 
L 1791 2888 
L 3713 2888 
L 3713 1978 
L 1791 1978 
L 1791 909 
L 3903 909 
L 3903 0 
L 588 0 
L 588 4666 
z
" transform="scale(0.015625)"/>
     </defs>
     <use xlink:href="#DejaVuSans-Bold-58"/>
     <use xlink:href="#DejaVuSans-Bold-39" x="77.099609"/>
     <use xlink:href="#DejaVuSans-Bold-2d" x="146.679688"/>
     <use xlink:href="#DejaVuSans-Bold-58" x="180.058594"/>
     <use xlink:href="#DejaVuSans-Bold-39" x="257.158203"/>
     <use xlink:href="#DejaVuSans-Bold-2e" x="326.738281"/>
     <use xlink:href="#DejaVuSans-Bold-49" x="364.726562"/>
     <use xlink:href="#DejaVuSans-Bold-52" x="401.933594"/>
     <use xlink:href="#DejaVuSans-Bold-31" x="478.935547"/>
     <use xlink:href="#DejaVuSans-Bold-2d" x="548.515625"/>
     <use xlink:href="#DejaVuSans-Bold-49" x="590.019531"/>
     <use xlink:href="#DejaVuSans-Bold-52" x="627.226562"/>
     <use xlink:href="#DejaVuSans-Bold-31" x="704.228516"/>
     <use xlink:href="#DejaVuSans-Bold-2e" x="773.808594"/>
     <use xlink:href="#DejaVuSans-Bold-2d" x="811.796875"/>
     <use xlink:href="#DejaVuSans-Bold-2e" x="853.300781"/>
     <use xlink:href="#DejaVuSans-Bold-48" x="891.289062"/>
     <use xlink:href="#DejaVuSans-Bold-48" x="974.980469"/>
     <use xlink:href="#DejaVuSans-Bold-45" x="1058.671875"/>
     <use xlink:href="#DejaVuSans-Bold-2d" x="1126.982422"/>
     <use xlink:href="#DejaVuSans-Bold-48" x="1168.486328"/>
     <use xlink:href="#DejaVuSans-Bold-48" x="1252.177734"/>
     <use xlink:href="#DejaVuSans-Bold-45" x="1335.869141"/>
    </g>
   </g>
  </g>
 </g>
 <defs>
  <clipPath id="p5f3266d8e5">
   <rect x="61.8" y="15.6" width="638.37" height="124.02"/>
  </clipPath>
 </defs>
</svg>
